<?xml version="1.0" standalone="no"?>
<!DOCTYPE svg PUBLIC "-//W3C//DTD SVG 20010904//EN"
 "http://www.w3.org/TR/2001/REC-SVG-20010904/DTD/svg10.dtd">
<svg version="1.0" xmlns="http://www.w3.org/2000/svg"
 width="281.000000pt" height="49.000000pt" viewBox="0 0 281.000000 49.000000"
 preserveAspectRatio="xMidYMid meet">

<g transform="translate(0.000000,49.000000) scale(0.100000,-0.100000)"
fill="#000000" stroke="none">
<path d="M457 404 c-12 -12 -8 -42 6 -47 21 -8 39 8 35 29 -3 19 -29 30 -41
18z"/>
<path d="M2127 403 c-13 -12 -7 -41 10 -47 9 -4 23 0 31 8 13 12 13 18 2 30
-13 17 -32 21 -43 9z"/>
<path d="M540 282 c0 -115 6 -132 47 -132 16 0 23 6 23 20 0 11 -4 20 -10 20
-6 0 -10 40 -10 100 l0 100 -25 0 -25 0 0 -108z"/>
<path d="M632 273 c3 -114 4 -118 26 -121 21 -3 22 0 22 56 0 40 5 64 15 72
25 20 35 1 35 -66 0 -62 1 -65 23 -62 20 3 22 9 25 74 2 61 0 73 -18 89 -18
16 -26 17 -51 8 l-29 -11 0 39 c0 35 -3 39 -25 39 l-26 0 3 -117z"/>
<path d="M115 369 c-52 -30 -72 -110 -44 -172 21 -47 107 -63 149 -29 19 15
21 24 15 65 -7 47 -7 47 -46 47 -42 0 -48 -9 -24 -34 8 -8 15 -24 15 -35 0
-28 -45 -29 -60 -2 -15 29 -12 83 6 110 14 20 22 22 55 17 39 -6 60 7 41 26
-15 15 -85 20 -107 7z"/>
<path d="M1632 263 l3 -108 64 3 c71 2 101 20 101 58 0 13 -10 32 -22 44 -12
11 -17 20 -10 20 21 0 26 49 7 70 -14 16 -31 20 -82 20 l-64 0 3 -107z m98 62
c15 -18 5 -35 -21 -35 -14 0 -19 7 -19 25 0 28 21 33 40 10z m11 -91 c11 -14
10 -18 -6 -30 -30 -22 -45 -17 -45 16 0 23 5 30 19 30 10 0 25 -7 32 -16z"/>
<path d="M2010 345 c0 -9 -7 -18 -15 -21 -16 -6 -21 -34 -6 -34 4 0 11 -25 14
-56 7 -67 21 -86 60 -82 36 4 48 27 18 35 -18 4 -21 13 -21 54 0 37 4 49 15
49 22 0 18 27 -5 33 -11 3 -20 12 -20 21 0 9 -8 16 -20 16 -11 0 -20 -7 -20
-15z"/>
<path d="M2370 340 c0 -11 -4 -20 -10 -20 -5 0 -10 -7 -10 -15 0 -8 5 -15 10
-15 6 0 10 -24 10 -54 0 -73 29 -101 84 -80 20 8 9 34 -15 34 -16 0 -19 8 -19
50 0 36 4 50 14 50 8 0 16 7 20 15 4 10 -1 15 -14 15 -13 0 -20 7 -20 20 0 15
-7 20 -25 20 -18 0 -25 -5 -25 -20z"/>
<path d="M835 305 c-36 -35 -35 -105 1 -134 31 -24 72 -27 100 -7 25 19 11 31
-33 31 -20 0 -38 6 -40 13 -3 8 10 12 46 12 50 0 51 1 51 30 0 38 -39 80 -75
80 -14 0 -37 -11 -50 -25z m75 -30 c0 -9 -9 -15 -25 -15 -24 0 -32 10 -18 23
12 13 43 7 43 -8z"/>
<path d="M1052 314 c-12 -8 -22 -10 -22 -5 0 6 -9 11 -20 11 -18 0 -20 -7 -20
-85 0 -84 0 -85 25 -85 22 0 24 4 27 58 3 48 7 59 26 67 12 5 22 15 22 22 0 7
0 16 1 20 1 14 -17 13 -39 -3z"/>
<path d="M1185 320 c-3 -5 -19 -7 -35 -3 l-30 6 0 -87 c0 -85 1 -87 23 -84 20
3 23 10 27 68 4 49 9 65 20 65 12 0 16 -16 18 -68 3 -64 4 -68 25 -65 19 3 23
10 27 68 4 49 9 65 20 65 12 0 16 -16 18 -68 3 -64 4 -68 25 -65 20 3 22 10
25 69 2 53 -1 70 -17 90 -18 22 -22 23 -52 12 -22 -9 -37 -9 -43 -3 -13 13
-43 13 -51 0z"/>
<path d="M1408 310 c-44 -34 -43 -126 2 -150 27 -14 73 -12 96 4 25 19 11 31
-33 31 -57 0 -53 23 4 27 44 3 48 5 51 30 4 34 -36 78 -71 78 -13 0 -36 -9
-49 -20z m70 -37 c2 -8 -6 -13 -22 -13 -17 0 -26 5 -26 16 0 19 41 16 48 -3z"/>
<path d="M1847 323 c-11 -3 -16 -10 -13 -20 3 -8 6 -16 6 -17 0 -1 16 0 35 2
27 3 35 1 35 -12 0 -10 -9 -16 -23 -16 -66 0 -93 -84 -34 -104 20 -7 34 -7 48
2 16 10 24 10 34 2 25 -21 33 -2 28 67 -7 92 -37 117 -116 96z m63 -113 c0
-13 -7 -20 -20 -20 -13 0 -20 7 -20 20 0 13 7 20 20 20 13 0 20 -7 20 -20z"/>
<path d="M2233 320 c-24 -10 -37 -39 -27 -63 3 -8 23 -23 45 -31 48 -19 43
-41 -7 -33 -39 7 -55 -10 -29 -30 28 -20 82 -16 105 7 34 34 19 72 -35 90 -46
15 -46 34 -1 27 24 -4 36 -1 40 9 10 27 -46 42 -91 24z"/>
<path d="M2508 324 c-32 -10 -20 -33 19 -36 46 -4 58 -28 14 -28 -35 0 -71
-30 -71 -59 0 -32 29 -54 64 -47 45 9 49 9 70 1 17 -8 18 -3 14 68 -2 42 -8
81 -14 87 -13 13 -71 21 -96 14z m62 -109 c0 -9 -7 -18 -16 -22 -18 -7 -39 11
-30 26 11 17 46 13 46 -4z"/>
<path d="M272 244 c3 -90 17 -106 68 -87 16 6 30 7 30 2 0 -5 9 -9 20 -9 18 0
20 7 20 85 0 84 0 85 -25 85 -23 0 -24 -4 -27 -62 -2 -50 -6 -63 -20 -66 -16
-3 -18 5 -18 62 0 64 -1 66 -25 66 -26 0 -26 0 -23 -76z"/>
<path d="M450 235 c0 -84 0 -85 25 -85 25 0 25 1 25 85 0 84 0 85 -25 85 -25
0 -25 -1 -25 -85z"/>
<path d="M2122 238 c3 -77 5 -83 26 -86 21 -3 22 -1 22 82 0 85 0 86 -25 86
-26 0 -26 0 -23 -82z"/>
</g>
</svg>
